HIERARCHY
ROOT Hips
{
  OFFSET 13.6774 106.653 -34.4427
  CHANNELS 6 Xposition Yposition Zposition Zrotation Xrotation Yrotation
  JOINT ToSpine
  {
    OFFSET -2.69724 7.43032 -0.144315
    CHANNELS 3 Zrotation Xrotation Yrotation
    JOINT Spine
    {
      OFFSET -0.0310711 10.7595 1.96963
      CHANNELS 3 Zrotation Xrotation Yrotation
      JOINT Spine1
      {
        OFFSET 19.9056 3.91189 0.764692
        CHANNELS 3 Zrotation Xrotation Yrotation
        JOINT Neck
        {
          OFFSET 25.9749 7.03908 -0.130764
          CHANNELS 3 Zrotation Xrotation Yrotation
          JOINT Head
          {
            OFFSET 9.52751 0.295786 -0.907742
            CHANNELS 3 Zrotation Xrotation Yrotation
            End Site
            {
              OFFSET 16.4037 0.713936 2.7358
            }
          }
        }
        JOINT LeftShoulder
        {
          OFFSET 17.7449 4.33886 11.7777
          CHANNELS 3 Zrotation Xrotation Yrotation
          JOINT LeftArm
          {
            OFFSET 0.911315 1.27913 9.80584
            CHANNELS 3 Zrotation Xrotation Yrotation
            JOINT LeftForeArm
            {
              OFFSET 28.6126 1.18197 -3.53199
              CHANNELS 3 Zrotation Xrotation Yrotation
              JOINT LeftHand
              {
                OFFSET 27.5088 0.0218783 0.327423
                CHANNELS 3 Zrotation Xrotation Yrotation
                End Site
                {
                  OFFSET 18.6038 -0.000155887 0.382096
                }
              }
            }
          }
        }
        JOINT RightShoulder
        {
          OFFSET 17.1009 2.89543 -12.2328
          CHANNELS 3 Zrotation Xrotation Yrotation
          JOINT RightArm
          {
            OFFSET 1.4228 0.178766 -10.211
            CHANNELS 3 Zrotation Xrotation Yrotation
            JOINT RightForeArm
            {
              OFFSET 28.733 1.87905 2.64907
              CHANNELS 3 Zrotation Xrotation Yrotation
              JOINT RightHand
              {
                OFFSET 27.4588 0.290562 -0.101845
                CHANNELS 3 Zrotation Xrotation Yrotation
                End Site
                {
                  OFFSET 17.8396 -0.255518 -0.000602873
                }
              }
            }
          }
        }
      }
    }
  }
  JOINT LeftUpLeg
  {
    OFFSET -5.61296 -2.22332 -10.2353
    CHANNELS 3 Zrotation Xrotation Yrotation
    JOINT LeftLeg
    {
      OFFSET 2.56703 -44.7417 -7.93097
      CHANNELS 3 Zrotation Xrotation Yrotation
      JOINT LeftFoot
      {
        OFFSET 3.16933 -46.5642 -3.96578
        CHANNELS 3 Zrotation Xrotation Yrotation
        JOINT LeftToeBase
        {
          OFFSET 0.346054 -6.02161 12.8035
          CHANNELS 3 Zrotation Xrotation Yrotation
          End Site
          {
            OFFSET 0.134235 -1.35082 5.13018
          }
        }
      }
    }
  }
  JOINT RightUpLeg
  {
    OFFSET -5.7928 -1.72406 10.6446
    CHANNELS 3 Zrotation Xrotation Yrotation
    JOINT RightLeg
    {
      OFFSET -2.57161 -44.7178 -7.85259
      CHANNELS 3 Zrotation Xrotation Yrotation
      JOINT RightFoot
      {
        OFFSET -3.10148 -46.5936 -4.03391
        CHANNELS 3 Zrotation Xrotation Yrotation
        JOINT RightToeBase
        {
          OFFSET -0.0828122 -6.13587 12.8035
          CHANNELS 3 Zrotation Xrotation Yrotation
          End Site
          {
            OFFSET -0.131328 -1.35082 5.13018
          }
        }
      }
    }
  }
}
MOTION
Frames: 17
Frame Time: 0.03333333333333333
0.0000 93.1000 0.0000 -96.2321 -57.9907 -173.6880 -70.5286 -0.1812 88.1540 108.9910 67.7422 -16.5094 11.0476 19.1872 4.7581 -139.8881 20.9742 173.9091 -148.8179 57.0184 157.3453 2.1465 0.7026 -24.5881 -64.7686 49.1614 -93.4170 41.2693 -3.8055 -93.7240 13.2280 -1.4671 -3.6817 -0.3230 -2.7815 25.6297 -67.6275 -46.7847 85.5884 18.8474 -18.9067 42.3702 9.4163 -0.6738 -2.5139 -38.9167 -1.4595 76.5666 -99.7971 85.3332 93.1864 5.5805 4.6568 -1.0347 -10.0169 -41.5235 10.7271 -53.6266 10.3895 72.9256 7.5399 66.0648 3.9873 -8.5622 -7.4096 0.7870 11.2828 -20.5186 -19.3858 
0.0000 93.1000 0.0000 -93.9192 -58.0116 -174.6995 -70.5938 -0.2137 88.0580 105.9088 69.5662 -14.1132 8.6823 20.4458 3.4497 -139.0627 20.8210 170.5350 -147.5278 57.3444 153.6676 1.8206 0.2838 -24.6799 -62.9938 49.0399 -97.3931 40.1991 7.7399 -79.4871 5.9716 -1.2319 -3.1691 -0.3358 -3.4592 24.8181 -70.7689 -48.8295 86.0191 17.3295 -16.4200 44.5369 9.1771 -0.5087 -2.5200 -37.0836 -3.5654 77.6626 -11.6971 75.1711 6.3144 4.7515 5.4023 -0.5819 -9.1182 -38.8676 11.5223 -61.5315 13.3506 77.2852 4.4486 58.8601 4.1638 -9.1015 -8.9081 1.0672 11.3502 -22.0523 -20.4444 
0.0000 93.1000 0.0000 -90.1887 -56.1317 -174.5158 -70.4736 0.3589 87.8746 98.0929 71.6600 -6.6628 8.5226 22.6350 0.1289 -137.4453 20.5350 169.7988 -151.1361 57.9650 157.8623 1.8827 0.1363 -25.8280 -63.3501 47.0474 -97.1615 43.4376 18.6909 -69.4181 1.9963 -0.5974 -3.6741 0.0374 -2.9056 24.7726 -69.1258 -50.9432 88.8646 16.0431 -12.4251 49.5161 8.4892 -0.6473 -1.8706 -37.6260 -4.4780 80.6515 -4.1513 55.8459 0.9723 2.7929 7.4639 -0.7167 -8.0896 -32.3705 12.2689 -68.5177 14.8654 83.0381 3.0476 53.0303 2.7391 -7.6136 -7.9200 1.2386 9.6271 -19.2074 -20.9065 
0.0000 93.1000 0.0000 -86.9871 -53.8371 -173.5726 -70.3459 0.5945 87.9007 89.0660 73.4666 3.1080 8.6459 23.9436 -2.6434 -135.7643 19.8761 167.9426 -153.2399 57.8792 158.9822 1.6920 0.1383 -26.5465 -60.4826 44.2448 -96.2780 47.0842 26.5184 -66.7170 2.3574 -0.4966 -4.5532 0.0834 -2.7790 24.6431 -66.0863 -51.8062 91.7121 17.0790 -10.8708 56.1733 7.7759 -0.1430 -0.4979 -39.8963 -4.5960 84.9215 -1.6327 37.7620 -3.8184 -0.1701 9.8508 -0.3980 -6.3885 -20.8795 13.5779 -72.5731 13.9028 85.0680 1.9476 49.1018 1.9081 -6.3448 -7.2549 0.9857 6.8876 -9.8528 -16.9381 
0.0000 93.1000 0.0000 -82.3818 -52.0518 -170.3169 -70.2513 0.2901 87.8997 74.8378 73.9985 16.1996 9.0120 24.1142 -4.0435 -135.9327 20.2299 169.6720 -152.7570 58.1980 159.5910 1.3207 0.2307 -25.6202 -56.6277 45.0497 -95.1758 50.2447 30.8578 -65.6267 3.5195 -0.7736 -5.4702 0.1999 -2.3766 24.0834 -64.0398 -53.0098 93.6642 21.0940 -9.4882 64.3181 6.6786 0.4358 1.8448 -38.5182 -3.6314 90.5724 -0.4638 28.9730 -11.2756 -1.4898 8.9847 -0.0283 -4.8196 -10.9006 12.1662 -70.6944 9.7509 83.0981 1.5634 53.3025 0.5553 -6.2430 -5.9401 0.3254 3.9589 3.2723 -12.0646 
0.0000 93.1000 0.0000 -85.0925 -50.3755 -174.4854 -70.1508 0.3095 87.7387 77.8799 74.6712 12.7208 9.1498 24.9421 -4.4720 -137.2694 19.9410 171.6307 -152.9445 57.6998 159.3982 1.2805 -0.3266 -23.5538 -52.4566 46.8083 -96.1691 43.9159 29.4117 -60.4729 4.3777 -0.8371 -5.7915 0.4402 -2.2890 22.9169 -62.2329 -53.7218 95.6451 24.0310 -7.9305 72.3321 6.3934 0.5774 3.4488 -40.9039 -3.6659 93.7743 -1.9742 29.8794 -10.5218 -1.9162 9.9007 -0.0021 -4.6125 -7.2494 12.2087 -70.4351 7.2581 83.0587 3.8231 62.8259 -1.3724 -6.1247 -6.1597 0.1779 3.9815 10.9519 -16.7479 
0.0000 93.1000 0.0000 -88.3229 -48.3884 -177.0463 -70.3822 -0.3255 87.5922 89.8193 75.2630 -1.2544 9.1722 24.7353 -3.0399 -139.2901 19.6582 172.5273 -152.8438 56.4420 157.2113 1.6513 -1.6114 -22.3847 -49.5933 49.0948 -95.2385 37.7565 27.8527 -56.6004 4.7912 -0.9665 -6.4908 -0.0569 -1.7807 22.3806 -61.9898 -54.7802 95.6031 24.8619 -5.4311 79.4145 7.7710 -0.4644 3.8295 -41.4152 -5.4387 91.7350 -2.8944 39.9517 -7.0188 -0.0427 10.5445 -0.1040 -4.0251 -5.6728 8.1440 -69.4370 5.1288 82.9928 8.6629 75.1770 -10.0534 -6.3451 -5.0099 -0.0737 5.9702 1.2480 -19.0904 
0.0000 93.1000 0.0000 -93.2469 -48.5067 175.7510 -70.1984 -0.5526 88.1358 99.9324 74.9495 -13.2240 10.1533 23.9572 -2.9039 -143.3646 18.6127 171.6382 -150.9929 55.1161 156.1320 1.2395 -2.0351 -22.6752 -46.5581 49.0522 -98.2448 33.4995 25.7947 -53.5924 3.5753 -0.9243 -5.7785 -0.4578 -2.2119 23.3395 -62.1022 -54.8444 97.6241 21.4357 -2.4790 84.2267 9.8418 -0.8163 4.4456 -43.3441 -6.9215 93.6985 -4.3794 49.9114 -3.2122 5.0926 12.4407 -0.6652 -6.0587 -18.9782 10.6730 -66.8259 2.2656 85.1227 38.0645 84.9111 -43.5324 -5.0824 -5.1183 -0.1538 6.3540 -1.1281 -21.9656 
0.0000 93.1000 0.0000 -93.4577 -50.0146 174.2238 -70.4177 -0.0530 88.3351 97.6778 73.9657 -15.5075 11.1720 23.0135 -3.1427 -145.2135 18.1134 172.5125 -151.2379 54.2927 155.9755 1.8141 -1.0843 -24.4743 -42.4392 43.7469 -104.1111 30.7044 29.0257 -48.3705 5.7084 -1.1682 -5.1737 0.0270 -2.3143 24.9646 -62.9834 -55.9668 97.6347 20.8318 -1.6599 86.0633 12.5867 -0.3001 4.8212 -42.6814 -9.5913 93.4529 -5.6287 59.8419 -0.7342 7.3801 11.7708 -0.9640 -8.1777 -29.3655 10.1480 -59.4512 -1.6219 85.8521 150.6284 81.8617 -154.3369 -6.8846 -5.9485 0.8861 7.9004 -5.3624 -21.9307 
0.0000 93.1000 0.0000 -95.4504 -49.9510 170.0628 -70.4177 -0.0512 88.1937 104.0285 73.1891 -23.1180 11.7649 22.4531 -3.6937 -146.3048 17.8560 172.5409 -148.9206 53.7446 157.1493 1.7333 -1.2441 -26.5204 -40.7591 37.6169 -113.1596 31.6585 39.1094 -42.8418 6.1642 -1.4663 -4.3581 0.1076 -2.2797 25.9729 -63.7815 -57.1490 98.1139 23.1624 -3.1548 83.4677 16.2181 -0.1208 3.6061 -45.2334 -8.3539 99.1860 -7.4927 64.7546 -2.0498 6.9230 11.1103 -1.0466 -8.7040 -33.4537 7.6579 -53.1814 -2.6297 90.8669 156.7074 79.1957 -156.2065 -6.6757 -5.7957 1.0088 8.8865 -7.9628 -21.8357 
0.0000 93.1000 0.0000 -94.9899 -51.1695 172.0523 -70.4033 -0.0844 88.3114 103.1509 72.3967 -21.7030 11.3373 21.9408 -4.0343 -143.3241 18.0043 172.0029 -145.2431 53.0006 155.2031 1.6279 -1.0599 -26.8831 -43.5950 35.6393 -117.2268 36.3164 46.9375 -43.5801 6.2451 -1.1799 -3.5530 0.0473 -2.1585 27.0632 -68.0551 -58.6567 93.7946 29.9864 -6.3699 80.4157 17.5433 -0.3165 1.3367 -48.3761 -6.8873 98.4356 -7.9148 66.6543 -2.5698 8.4260 10.3670 -1.5299 -10.0539 -39.8423 6.2155 -45.7391 -1.8791 90.8912 148.9921 80.7687 -147.6159 -7.8583 -6.0673 0.9836 9.1196 -13.1817 -21.1137 
0.0000 93.1000 0.0000 -93.7182 -53.6076 174.2139 -70.5461 -0.3792 88.1718 101.1911 70.7405 -19.6835 9.8988 20.2467 -2.5081 -141.3254 19.0161 170.7919 -140.2874 52.3090 152.0961 1.4992 -0.8112 -26.4608 -48.5737 36.8002 -119.0325 37.5643 45.2616 -44.3923 6.8091 -1.4797 -2.4931 0.1781 -2.2850 27.2543 -74.0628 -58.7522 83.9895 33.8487 -7.9630 78.6059 16.6656 0.6460 1.4898 -51.0986 -8.2730 93.9364 -8.3835 66.1208 -1.6506 7.8581 9.2163 -1.3953 -10.9723 -42.7554 5.9493 -41.1928 -2.8523 88.0896 70.6150 85.5777 -66.5385 -8.3384 -7.1267 0.6080 10.2088 -14.8836 -21.0758 
0.0000 93.1000 0.0000 -91.8277 -55.8303 176.4560 -70.2964 0.3337 88.0359 100.3055 70.0679 -17.1904 9.5206 19.4823 -0.7319 -138.3143 19.7667 170.9012 -133.2995 52.3391 153.0108 1.6403 -0.1805 -25.7285 -50.5231 38.5858 -121.0403 35.4024 38.2231 -47.3955 9.9155 -0.7909 -1.7380 0.4939 -2.0224 28.0478 -76.7768 -57.8996 77.9169 30.1010 -7.8807 76.3484 16.5558 0.3916 1.3255 -55.1883 -8.7499 90.0996 -7.3075 64.2970 -1.0965 8.0103 6.1092 -2.1389 -10.4496 -39.6818 9.0456 -39.7683 -2.5461 86.3623 8.3081 75.1984 -5.8696 -7.9465 -7.7157 1.3457 9.0714 -12.3061 -21.2939 
0.0000 93.1000 0.0000 -90.9555 -56.8135 -181.3898 -70.4030 -0.0411 87.8947 99.1556 69.1953 -15.8331 8.8887 18.8627 1.1113 -136.4693 21.0068 171.0800 -128.7964 52.9259 152.9256 2.0850 0.0099 -25.4796 -50.6853 39.0345 -120.8209 31.6978 27.4091 -51.5075 11.8440 -0.5296 -1.6328 -0.6147 -2.1401 27.0646 -77.4328 -57.2514 74.8418 25.2020 -7.6812 72.5902 18.5301 -0.6646 -0.3061 -59.0837 -8.6342 87.7151 -6.2321 62.2392 -1.9008 5.4179 4.8997 -1.4193 -8.5079 -35.8817 12.1801 -39.4348 -2.6516 84.7868 1.9450 57.8503 -0.8380 -5.9825 -8.3414 1.0355 7.3038 -6.4405 -19.5153 
0.0000 93.1000 0.0000 -89.0120 -57.7336 -177.0539 -70.1359 0.0955 87.9997 97.2190 68.7549 -11.6056 9.3788 19.0843 0.6481 -133.5758 22.0442 170.9081 -125.3701 53.0532 152.8754 1.3586 -0.1604 -25.6256 -51.7265 38.8042 -117.7336 28.2481 18.0417 -58.5833 11.1512 -0.6271 -0.4938 -0.0540 -2.1701 26.2150 -76.1367 -57.7607 72.9110 22.0025 -9.3151 68.7248 17.5286 -0.1176 -0.3812 -58.9614 -6.7478 87.0549 -7.3094 65.2753 -0.8577 2.8439 4.1101 -1.0824 -7.1050 -27.8407 11.8015 -41.4901 -1.5755 82.7046 0.5772 43.2733 2.7216 -6.2398 -8.1519 1.0484 6.6314 -0.3213 -19.0624 
0.0000 93.1000 0.0000 -88.9600 -57.8575 -176.0696 -70.1845 0.0159 87.9952 98.1238 68.7060 -9.2926 10.0461 19.1956 -0.1004 -129.5892 22.7548 170.0946 -123.5936 54.0778 152.2033 1.3822 0.1945 -23.7060 -51.6917 36.8010 -116.9284 25.5033 10.1163 -67.4327 9.2541 -0.5905 -1.9348 -0.0365 -2.2681 25.0983 -76.1460 -58.7549 70.9315 17.8825 -8.1012 64.6827 17.1429 -0.1130 -0.3880 -56.9808 -4.8444 86.7742 -9.4211 71.2971 3.1772 1.8968 4.9947 -0.9589 -6.1223 -18.3505 9.9997 -43.5006 -0.6785 80.0230 0.9524 36.3056 5.2339 -6.9259 -9.3026 1.1648 5.6288 2.5704 -18.2766 
0.0000 93.1000 0.0000 -89.0716 -59.8418 -174.7995 -70.3673 -0.0264 87.9797 98.9331 68.5724 -8.3837 8.8988 19.3302 -0.0532 -128.6075 22.8742 168.5429 -127.3223 55.0988 153.1504 1.3093 0.8457 -22.2948 -52.8415 33.8978 -114.6710 23.5274 5.2524 -77.5581 5.5212 -0.9674 -4.0903 0.1401 -2.5159 23.1431 -77.2815 -59.6333 67.1352 16.3881 -8.2256 62.6717 17.6265 0.1124 0.2535 -53.8748 -3.5604 85.8266 -18.4270 79.2980 14.7375 3.1531 7.0467 -0.8443 -5.9634 -17.3217 10.7885 -44.4446 0.0443 79.0519 0.9647 37.4159 4.5139 -7.2828 -9.2044 0.7976 4.8421 2.7044 -17.1703 
